<svg width="50" height="50" viewBox="0 0 50 50" fill="none" xmlns="http://www.w3.org/2000/svg">
<path d="M34.6195 49.5401H14.9944C6.85179 49.5401 0.227295 42.9157 0.227295 34.773V15.148C0.227295 7.00536 6.85179 0.380859 14.9944 0.380859H34.6195C42.7621 0.380859 49.3866 7.00536 49.3866 15.148V34.773C49.3866 42.9157 42.7621 49.5401 34.6195 49.5401ZM14.9944 4.99041C9.40498 4.99041 4.85064 9.54475 4.85064 15.1342V34.7592C4.85064 40.3487 9.40498 44.903 14.9944 44.903H34.6195C40.2089 44.903 44.7632 40.3487 44.7632 34.7592V15.1342C44.7632 9.54475 40.2089 4.99041 34.6195 4.99041H14.9944Z" fill="#3D1F0F"/>
</svg>
