<svg width="43" height="50" viewBox="0 0 43 50" fill="none" xmlns="http://www.w3.org/2000/svg">
<path d="M42.8694 20.1495C42.4692 20.1909 42.0552 20.2047 41.6411 20.2185C37.1558 20.2185 32.9741 17.9552 30.5175 14.2013V34.6682C30.5175 43.0316 23.7412 49.7941 15.3916 49.7941C7.04193 49.7941 0.265625 43.0178 0.265625 34.6682C0.265625 26.3186 7.04193 19.5423 15.3916 19.5423C15.709 19.5423 16.0126 19.5699 16.33 19.5837V27.0362C16.0264 26.9948 15.709 26.9396 15.3916 26.9396C11.127 26.9396 7.66298 30.4037 7.66298 34.6682C7.66298 38.9327 11.127 42.3968 15.3916 42.3968C19.6561 42.3968 23.4238 39.0293 23.4238 34.7648L23.4928 0H30.6279C31.3042 6.40368 36.4519 11.3997 42.8694 11.8689V20.1495Z" fill="#3D1F0F"/>
</svg>
