<svg width="61" height="50" viewBox="0 0 61 50" fill="none" xmlns="http://www.w3.org/2000/svg">
<path d="M60.3673 6.25951C58.4766 7.11518 56.3788 7.63962 54.3225 7.98464C55.2886 7.81903 56.7239 6.0663 57.2897 5.34865C58.1592 4.25837 58.8906 3.03007 59.2909 1.69137C59.3461 1.58097 59.3875 1.45675 59.2909 1.37395C59.1528 1.31874 59.07 1.34635 58.9734 1.40155C56.6825 2.62985 54.3225 3.51311 51.8107 4.14796C51.6037 4.20316 51.4519 4.14795 51.3139 4.02374C51.1068 3.78912 50.9136 3.56831 50.6928 3.3889C49.6301 2.49183 48.4984 1.78797 47.2288 1.26353C45.545 0.573483 43.7095 0.283668 41.9016 0.407877C40.1488 0.518285 38.4099 1.01512 36.8504 1.82938C35.2909 2.64364 33.8831 3.78913 32.7791 5.15544C31.6336 6.57694 30.7779 8.24687 30.3501 10.0272C29.9361 11.7385 29.9637 13.4361 30.2259 15.175C30.2673 15.4648 30.2259 15.5062 29.9775 15.4648C20.1373 14.0019 11.9809 10.4826 5.37021 2.93347C5.08039 2.60224 4.92858 2.60224 4.69396 2.96107C1.79574 7.30839 3.20345 14.2779 6.81932 17.7006C7.30236 18.156 7.79919 18.6114 8.33743 19.0255C8.14422 19.0669 5.72904 18.8047 3.58988 17.7006C3.30006 17.5212 3.16205 17.6178 3.13444 17.949C3.10684 18.4182 3.13444 18.8461 3.21725 19.3567C3.76929 23.7592 6.81932 27.8305 11.001 29.4177C11.4979 29.6247 12.0499 29.8041 12.5744 29.9007C11.6221 30.1077 10.6422 30.2595 7.9234 30.0387C7.57838 29.9697 7.45417 30.1491 7.57838 30.4665C9.63473 36.056 14.0511 37.7121 17.3633 38.6643C17.8049 38.7472 18.2466 38.7472 18.702 38.8438C18.6744 38.8852 18.6468 38.8852 18.6192 38.9266C17.5151 40.5965 13.706 41.8524 11.9395 42.4734C8.71006 43.6051 5.2046 44.102 1.79574 43.7707C1.2437 43.6879 1.13329 43.7017 0.981482 43.7707C0.829671 43.8673 0.967681 43.9915 1.13329 44.1295C1.82335 44.585 2.5272 44.9852 3.24485 45.3854C5.41161 46.5309 7.67498 47.4418 10.035 48.1042C22.2351 51.4717 35.9671 49.0013 45.1172 39.9064C52.3075 32.7575 54.8331 22.9036 54.8331 13.0496C54.8331 12.6632 55.2886 12.4562 55.5646 12.2492C57.4415 10.8415 58.9458 9.15773 60.3397 7.28079C60.6572 6.85295 60.6572 6.48033 60.6572 6.32852V6.27332C60.6572 6.12151 60.6572 6.16291 60.4087 6.27332L60.3673 6.25951Z" fill="#3D1F0F"/>
</svg>
